<svg width="40" height="40" viewBox="0 0 40 40" fill="none" xmlns="http://www.w3.org/2000/svg">
<path d="M20.0009 0C8.9541 0 0 8.95543 0 20C0 31.0446 8.9541 40 20.0009 40C31.0476 40 40 31.0463 40 20C40 8.95372 31.0459 0 20.0009 0ZM34.747 23.8344C32.5123 32.2679 23.9038 37.1169 15.6239 34.754C7.3953 32.4048 2.66758 23.7078 5.19485 15.4898C7.71356 7.30259 16.3973 2.71708 24.7679 5.43246C28.6606 6.69347 32.2522 9.23261 34.9591 12.386C34.9643 12.3894 34.9677 12.3946 34.9711 12.398C35.1491 12.6153 35.2569 12.8959 35.2569 13.2004C35.2569 13.9002 34.6888 14.4683 33.989 14.4683C33.7717 14.4683 33.5663 14.4136 33.3884 14.3177C33.349 14.2972 33.3131 14.275 33.2789 14.2493C29.5042 11.9257 25.0913 10.5569 20.6545 11.1592C16.1133 11.7769 11.3719 14.8858 11.3137 19.7125C11.2743 22.9926 13.2934 25.7952 16.3426 26.9707C21.1182 28.81 27.6922 27.2478 29.8019 22.3509C30.1459 21.557 29.8156 20.6262 28.9293 20.349C28.1679 20.1112 27.3602 19.9572 26.5475 19.793C25.5123 19.5842 24.7183 18.65 25.052 17.5977C25.8836 14.9799 29.9628 14.4204 32.6321 15.7858C35.7548 17.3822 35.5084 20.9547 34.747 23.8344ZM18.1974 20.8162C17.4667 20.8914 16.9928 20.3781 16.8319 19.5774C16.6865 18.8468 16.8525 18.1436 17.6036 17.9297C18.3154 17.7278 18.9879 18.2034 19.1436 19.0966C19.3044 20.0154 19.0529 20.7272 18.1974 20.8162ZM14.9018 21.7093C14.1969 21.8907 13.5535 21.415 13.3909 20.5989C13.2985 20.1369 13.2951 19.5688 13.5552 19.2044C13.7862 18.8827 14.4381 18.7475 14.8796 18.869C15.215 18.9614 15.552 19.5038 15.6718 19.988C15.8823 20.8418 15.6102 21.5296 14.9018 21.7093Z" fill="white"/>
</svg>
